<svg width="406" height="306" viewBox="0 0 406 306" fill="none" xmlns="http://www.w3.org/2000/svg">
<path d="M172.794 264.843C222.712 264.843 263.179 261.539 263.179 257.464C263.179 253.388 222.712 250.085 172.794 250.085C122.875 250.085 82.408 253.388 82.408 257.464C82.408 261.539 122.875 264.843 172.794 264.843Z" fill="#E6E7E8"/>
<path d="M323.592 188.19H259.322V240.554H323.592V188.19Z" fill="white"/>
<path d="M323.592 241.072H259.322C259.188 241.072 259.059 241.018 258.964 240.923C258.868 240.828 258.815 240.699 258.815 240.564V188.19C258.815 188.055 258.868 187.926 258.964 187.831C259.059 187.736 259.188 187.683 259.322 187.683H323.592C323.726 187.685 323.854 187.739 323.948 187.834C324.043 187.929 324.097 188.056 324.1 188.19V240.564C324.097 240.698 324.043 240.825 323.948 240.92C323.854 241.015 323.726 241.069 323.592 241.072V241.072ZM259.83 240.057H323.085V188.698H259.84L259.83 240.057Z" fill="#D1D3D4"/>
<path d="M323.592 195.427H259.322C259.188 195.427 259.059 195.374 258.964 195.278C258.868 195.183 258.815 195.054 258.815 194.92C258.815 194.785 258.868 194.656 258.964 194.561C259.059 194.465 259.188 194.412 259.322 194.412H323.592C323.727 194.412 323.856 194.465 323.951 194.561C324.046 194.656 324.1 194.785 324.1 194.92C324.097 195.053 324.043 195.181 323.948 195.275C323.854 195.37 323.726 195.424 323.592 195.427V195.427Z" fill="#D1D3D4"/>
<path d="M146.505 90.3542C145.119 90.4474 143.736 90.1322 142.527 89.4475C141.318 88.7629 140.337 87.7389 139.704 86.5022C139.071 85.2655 138.814 83.8703 138.966 82.4894C139.118 81.1084 139.671 79.8023 140.557 78.7324C136.68 76.946 134.63 72.3582 134.914 68.1054C135.198 63.8525 137.441 59.9854 140.243 56.7171C142.547 54.0476 145.439 51.6421 148.9 50.9823C149.556 50.9171 150.194 50.7385 150.788 50.4545C151.256 50.1258 151.661 49.7168 151.986 49.2467C154.513 46.019 157.629 43.0552 161.527 41.756C165.425 40.4568 170.195 41.1977 172.804 44.3747C174.108 43.2427 175.725 42.5333 177.44 42.3404C179.156 42.1475 180.89 42.4801 182.413 43.2943C183.936 44.1085 185.176 45.3658 185.968 46.8999C186.761 48.4341 187.069 50.1727 186.851 51.8857C189.597 52.2911 192.172 53.4664 194.278 55.2754C196.383 57.0844 197.933 59.453 198.747 62.1067C200.199 67.4456 197.732 73.7183 192.809 76.2457C192.241 76.54 191.561 76.9257 191.581 77.555C191.637 77.9349 191.807 78.2888 192.068 78.57C193.652 80.8335 192.86 84.1119 191.053 86.1622C189.247 88.2125 186.547 89.2986 183.948 90.3339C184.526 90.9135 184.912 91.6572 185.051 92.4637C185.191 93.2702 185.079 94.1001 184.73 94.8405C183.977 96.3226 182.805 97.5508 181.36 98.3727C175.717 102.017 168.734 100.88 162.41 101.012C156.574 101.133 150.778 97.4084 146.911 93.186C146.16 92.3842 145.561 90.9226 146.505 90.3542Z" fill="white"/>
<path d="M169.404 101.59C168.389 101.59 167.374 101.59 166.44 101.59C165.12 101.59 163.74 101.529 162.441 101.59C157.142 101.682 151.276 98.7077 146.546 93.6022C146.213 93.2684 145.951 92.8705 145.777 92.4325C145.602 91.9946 145.519 91.5258 145.531 91.0546C145.525 91.0176 145.525 90.9799 145.531 90.9429C144.164 90.8773 142.841 90.4426 141.702 89.6851C140.563 88.9276 139.65 87.8757 139.061 86.641C138.471 85.4063 138.228 84.035 138.355 82.6728C138.483 81.3107 138.977 80.0086 139.786 78.905C136.284 76.9765 134.102 72.6222 134.406 68.075C134.66 64.1875 136.497 60.2595 139.857 56.3822C142.78 53.0124 145.703 51.0839 148.809 50.485L149.154 50.4241C149.643 50.4049 150.118 50.2628 150.537 50.0108C150.956 49.7588 151.304 49.4053 151.55 48.9828C154.737 44.9228 157.934 42.4259 161.365 41.279C165.597 39.8681 170.236 40.8527 172.865 43.6642C174.248 42.596 175.912 41.9517 177.654 41.8091C179.396 41.6666 181.142 42.0319 182.681 42.8609C184.22 43.6899 185.485 44.947 186.324 46.4802C187.164 48.0134 187.541 49.757 187.41 51.5C190.152 51.9956 192.706 53.2344 194.793 55.0815C196.88 56.9285 198.42 59.3129 199.245 61.9748C200.787 67.6487 198.057 74.1548 193.043 76.7025C192.535 76.9562 192.079 77.2404 192.089 77.5449C192.139 77.7555 192.24 77.9506 192.383 78.1133L192.475 78.2453C194.281 80.8031 193.256 84.386 191.378 86.4566C189.521 88.2797 187.281 89.6665 184.821 90.5166C185.266 91.1817 185.534 91.9486 185.602 92.7456C185.669 93.5426 185.533 94.3437 185.207 95.074C184.43 96.6387 183.204 97.9358 181.685 98.799C177.919 101.235 173.656 101.59 169.404 101.59ZM163.567 100.494C164.532 100.494 165.506 100.494 166.46 100.494C171.535 100.596 176.762 100.707 181.096 97.9058C182.462 97.1449 183.569 95.9924 184.273 94.5969C184.588 93.9503 184.694 93.2217 184.576 92.5123C184.458 91.8029 184.121 91.1479 183.614 90.6384C183.547 90.582 183.496 90.5093 183.466 90.4276C183.436 90.3458 183.427 90.2576 183.441 90.1715C183.455 90.0841 183.492 90.0018 183.547 89.9325C183.602 89.8632 183.674 89.8092 183.756 89.7757C186.131 88.8216 188.831 87.7457 190.627 85.7157C192.241 83.9394 193.144 80.8944 191.642 78.7629L191.551 78.6513C191.274 78.3322 191.104 77.9348 191.064 77.5145C191.064 76.4995 192.028 76.0123 192.566 75.7382C197.174 73.3631 199.671 67.4152 198.25 62.1778C197.447 59.6324 195.943 57.3646 193.911 55.6342C191.879 53.9037 189.401 52.7805 186.76 52.3932C186.629 52.3731 186.511 52.3023 186.431 52.196C186.351 52.0898 186.316 51.9565 186.334 51.8248C186.533 50.2169 186.242 48.5862 185.499 47.1466C184.755 45.7071 183.594 44.5258 182.167 43.7576C180.741 42.9894 179.115 42.6703 177.504 42.842C175.893 43.0137 174.371 43.6682 173.139 44.7198C173.088 44.7647 173.028 44.7986 172.964 44.8196C172.899 44.8405 172.831 44.848 172.763 44.8416C172.696 44.8366 172.631 44.8178 172.572 44.7863C172.512 44.7549 172.46 44.7115 172.418 44.6589C170.134 41.8778 165.719 40.8628 161.7 42.2128C158.462 43.2887 155.417 45.6841 152.392 49.5309C152.034 50.0516 151.583 50.5022 151.063 50.8606C150.527 51.1458 149.941 51.325 149.337 51.3884L149.012 51.4493C146.14 52.0075 143.399 53.8244 140.628 57.0115C137.421 60.7162 135.675 64.4514 135.432 68.1054C135.137 72.4902 137.33 76.6517 140.781 78.2554C140.851 78.288 140.913 78.336 140.962 78.3957C141.011 78.4554 141.046 78.5254 141.065 78.6005C141.081 78.6769 141.079 78.7561 141.06 78.8318C141.041 78.9075 141.004 78.9777 140.953 79.037C140.116 80.0261 139.59 81.2407 139.442 82.5279C139.294 83.8151 139.53 85.1174 140.12 86.2708C140.711 87.4243 141.629 88.3773 142.76 89.01C143.89 89.6427 145.183 89.9267 146.475 89.8264C146.59 89.8146 146.706 89.8437 146.803 89.9086C146.899 89.9735 146.97 90.0701 147.003 90.1817C147.037 90.2906 147.034 90.408 146.993 90.5148C146.953 90.6217 146.877 90.7117 146.779 90.7704C146.717 90.8051 146.663 90.8548 146.624 90.915C146.586 90.9752 146.562 91.044 146.556 91.1155C146.573 91.7633 146.843 92.3787 147.307 92.8308C151.793 97.7231 157.457 100.585 162.42 100.484L163.567 100.494Z" fill="#231F20"/>
<path d="M218.996 239.001C221.321 239.001 238.647 240.879 246.757 244.908C254.867 248.938 256.623 249.252 254.978 254.693C253.334 260.133 239.053 261.473 228.182 259.423C221.181 257.983 214.427 255.528 208.136 252.135L218.996 239.001Z" fill="white"/>
<path d="M238.434 260.874C234.965 260.861 231.506 260.521 228.101 259.859C221.052 258.409 214.251 255.94 207.913 252.531C207.854 252.495 207.803 252.448 207.763 252.392C207.722 252.337 207.694 252.273 207.679 252.206C207.667 252.14 207.67 252.072 207.688 252.007C207.705 251.942 207.737 251.882 207.781 251.831L218.641 238.696C218.681 238.643 218.733 238.599 218.793 238.569C218.853 238.539 218.919 238.524 218.986 238.524H219.088C221.92 238.524 238.84 240.452 246.96 244.482L248.787 245.385C255.293 248.572 257.049 249.445 255.425 254.825C254.4 258.235 247.721 260.874 238.434 260.874ZM208.857 251.993C214.968 255.22 221.505 257.567 228.274 258.966C239.185 260.996 253.029 259.555 254.542 254.561C255.932 249.933 254.927 249.435 248.381 246.228L246.554 245.324C238.809 241.478 222.244 239.519 219.21 239.458L208.857 251.993Z" fill="#231F20"/>
<path d="M221.321 238.95C222.853 239.326 224.187 240.266 225.055 241.584C225.923 242.902 226.26 244.499 226 246.055C225.239 251.831 213.028 252.074 212.328 252.145C211.628 252.216 221.321 238.95 221.321 238.95Z" fill="white"/>
<path d="M212.328 252.47C212.237 252.467 212.149 252.442 212.071 252.395C211.992 252.349 211.927 252.284 211.881 252.206C211.729 251.902 211.485 251.435 220.945 238.636C220.999 238.561 221.075 238.505 221.162 238.474C221.249 238.443 221.343 238.439 221.432 238.463C221.483 238.463 227.269 239.914 226.507 246.035C225.736 251.912 214.612 252.429 212.389 252.47H212.328ZM221.463 239.448C218.489 243.508 214.063 249.598 212.957 251.526C215.738 251.394 224.883 250.613 225.502 245.913C225.741 244.538 225.465 243.123 224.728 241.938C223.99 240.753 222.842 239.881 221.503 239.488L221.463 239.448Z" fill="#231F20"/>
<path d="M130.823 252.176C130.468 252.358 127.149 256.672 112.675 258.398C98.2012 260.123 92.8319 263.239 89.6042 255.637C86.3765 248.034 88.5892 243.122 95.6942 240.95C102.799 238.778 122.48 236.981 126.337 240.615C130.194 244.249 130.823 252.176 130.823 252.176Z" fill="white"/>
<path d="M96.7499 260.976C93.1669 260.976 90.8629 259.778 89.178 255.82C87.4931 251.861 87.2393 248.461 88.4675 245.832C89.6043 243.396 91.9997 241.599 95.5725 240.513C102.251 238.483 122.541 236.392 126.662 240.28C130.61 243.995 131.24 251.81 131.27 252.135C131.275 252.221 131.257 252.307 131.217 252.383C131.178 252.46 131.119 252.525 131.047 252.572L130.905 252.693C126.733 256.489 118.725 258.144 112.716 258.854C109.6 259.23 106.92 259.666 104.596 260.052C102.007 260.553 99.3844 260.862 96.7499 260.976V260.976ZM115.487 238.991C108.534 238.991 100.11 240.097 95.8668 241.396C92.5376 242.411 90.3249 244.035 89.3099 246.228C88.1934 248.603 88.437 251.709 90.0306 255.454C92.4158 261.087 95.9379 260.529 104.423 259.139C106.798 258.753 109.498 258.316 112.624 257.941C118.491 257.24 126.317 255.637 130.306 252.003C130.164 250.673 129.291 244.106 126.012 240.98C124.551 239.539 120.379 238.991 115.487 238.991Z" fill="#231F20"/>
<path d="M135.442 249.07C135.442 249.07 128.875 254.551 124.5 253.901C120.125 253.252 114.076 250.856 116.512 246.136C118.948 241.417 134.63 238.575 134.63 238.575L135.442 249.07Z" fill="white"/>
<path d="M125.251 254.419C124.976 254.419 124.701 254.399 124.429 254.358C121.15 253.871 117.192 252.47 115.923 249.983C115.61 249.346 115.461 248.641 115.492 247.931C115.522 247.222 115.729 246.532 116.096 245.923C118.613 241.031 133.899 238.24 134.548 238.118C134.612 238.107 134.678 238.109 134.741 238.125C134.804 238.141 134.862 238.169 134.914 238.209C134.965 238.25 135.008 238.301 135.039 238.358C135.071 238.416 135.09 238.479 135.096 238.544L135.908 249.029C135.914 249.103 135.902 249.178 135.874 249.246C135.846 249.315 135.802 249.376 135.746 249.425C135.482 249.638 129.707 254.419 125.251 254.419ZM134.213 239.133C131.524 239.661 118.988 242.33 116.958 246.35C116.659 246.827 116.485 247.372 116.453 247.935C116.421 248.497 116.532 249.059 116.776 249.567C117.892 251.729 121.546 252.988 124.601 253.444C128.326 254.003 133.919 249.719 134.995 248.867L134.213 239.133Z" fill="#231F20"/>
<path d="M214.327 203.029C214.327 203.029 207.405 230.028 182.142 235.185C156.878 240.341 143.805 238.981 134.853 221.929C125.901 204.877 131.808 194.442 131.808 194.442L211.536 192.859L214.327 203.029Z" fill="#231F20"/>
<path d="M161.304 238.341C149.124 238.341 140.669 234.099 134.396 222.162C125.424 205.059 131.138 194.625 131.351 194.189C131.395 194.112 131.459 194.048 131.536 194.004C131.612 193.959 131.699 193.935 131.788 193.935L211.516 192.352C211.631 192.346 211.744 192.38 211.837 192.448C211.929 192.517 211.995 192.615 212.023 192.727L214.784 202.877C214.804 202.964 214.804 203.054 214.784 203.141C214.713 203.415 207.496 230.546 182.203 235.672C174.215 237.326 167.302 238.341 161.304 238.341ZM132.143 194.94C131.351 196.615 127.352 206.541 135.299 221.695C144.384 238.95 157.629 239.681 181.989 234.687C205.771 229.835 213.191 205.019 213.749 203.029L211.12 193.377L132.143 194.94Z" fill="#231F20"/>
<path d="M125.86 203.273C125.86 203.273 112.797 161.049 114.512 134.588C116.228 108.127 126.063 107.183 139.481 105.691C145.439 105.021 177.178 100.322 189.064 114.308C200.95 128.295 221.869 193.803 221.869 193.803L125.86 203.273Z" fill="#393DA8"/>
<path d="M173.007 105.762L170.977 119.891C170.977 119.891 166.531 127.189 157.63 123.494C148.728 119.799 148.555 112.989 148.555 112.989L152.778 86.8829C152.778 86.8829 162.167 78.4584 166.115 62.3605C166.115 62.3605 173.981 76.0833 185.4 79.1689C185.4 79.1689 184.639 90.5673 182.599 97.6317C180.569 104.463 173.149 105.681 173.007 105.762Z" fill="white"/>
<path d="M162.4 125.037C160.674 125.016 158.969 124.65 157.386 123.961C148.251 120.185 148.007 113.293 147.997 112.999L152.25 86.8017C152.271 86.6856 152.327 86.579 152.412 86.4972C152.504 86.416 161.73 77.9915 165.607 62.2387C165.635 62.142 165.69 62.0552 165.766 61.9887C165.841 61.9221 165.934 61.8786 166.034 61.8631C166.133 61.8491 166.234 61.8648 166.324 61.9081C166.415 61.9515 166.49 62.0206 166.541 62.1067C166.622 62.2488 174.448 75.6874 185.501 78.6715C185.616 78.702 185.716 78.7714 185.784 78.8677C185.853 78.9641 185.886 79.0814 185.877 79.1993C185.877 79.311 185.085 90.7399 183.055 97.7738C181.38 103.569 175.95 105.559 173.474 106.168L171.444 119.962C171.434 120.029 171.414 120.094 171.383 120.155C170.382 121.625 169.045 122.835 167.483 123.684C165.92 124.533 164.178 124.997 162.4 125.037V125.037ZM153.265 87.1265L149.063 113.07C149.063 113.232 149.367 119.505 157.832 123.027C165.739 126.306 170.012 120.469 170.5 119.708L172.53 105.691C172.539 105.614 172.567 105.54 172.611 105.477C172.656 105.413 172.715 105.361 172.783 105.325C172.877 105.271 172.981 105.237 173.088 105.224C175.27 104.706 180.528 102.91 182.091 97.4896C183.877 91.3083 184.689 81.6455 184.842 79.5444C175.301 76.743 168.378 66.9077 166.308 63.6495C162.451 77.9407 154.361 86.01 153.265 87.1265Z" fill="#231F20"/>
<path d="M158.249 87.2787C158.135 85.9582 157.593 84.711 156.706 83.7262C155.843 82.8416 154.833 82.1135 153.722 81.5744C153.145 81.2179 152.497 80.9926 151.824 80.9147C151.347 80.9194 150.876 81.0123 150.433 81.1887C149.352 81.5335 148.431 82.2535 147.835 83.2187C147.442 84.0376 147.258 84.9404 147.297 85.8476C147.257 86.8293 147.345 87.8121 147.561 88.7708C147.799 89.728 148.226 90.628 148.817 91.418C149.408 92.208 150.15 92.8721 151.001 93.3712C151.852 93.8704 152.794 94.1946 153.772 94.3249C154.75 94.4552 155.744 94.389 156.696 94.13" fill="white"/>
<path d="M154.767 94.8506C153.001 94.8523 151.285 94.2639 149.891 93.179C148.497 92.0941 147.506 90.5748 147.074 88.8621C146.838 87.8652 146.743 86.8404 146.789 85.8171C146.754 84.8286 146.959 83.8462 147.388 82.9548C148.035 81.8937 149.039 81.0983 150.22 80.7117C150.725 80.5154 151.262 80.4122 151.803 80.4072C152.555 80.4864 153.28 80.7326 153.925 81.1279C155.085 81.6943 156.139 82.4566 157.041 83.3812C158.004 84.4506 158.592 85.8046 158.716 87.2381C158.724 87.3722 158.68 87.5044 158.593 87.6067C158.506 87.709 158.382 87.7733 158.249 87.7863C158.115 87.7923 157.984 87.7474 157.883 87.6608C157.781 87.5741 157.716 87.4521 157.701 87.3194C157.601 86.1117 157.113 84.9687 156.31 84.0612C155.485 83.2233 154.52 82.5363 153.458 82.0312C152.952 81.7067 152.38 81.4987 151.783 81.4222C151.372 81.4256 150.965 81.5083 150.585 81.6658C149.627 81.9618 148.801 82.5827 148.251 83.4217C147.906 84.1715 147.746 84.9929 147.784 85.8171C147.735 86.7549 147.821 87.6948 148.038 88.6084C148.261 89.4969 148.659 90.3322 149.208 91.0656C149.757 91.7991 150.446 92.416 151.236 92.8807C152.025 93.3454 152.899 93.6485 153.807 93.7723C154.715 93.8962 155.638 93.8384 156.523 93.6022C156.652 93.568 156.79 93.5861 156.906 93.6526C157.022 93.7191 157.107 93.8286 157.142 93.9575C157.159 94.0221 157.163 94.0894 157.154 94.1556C157.144 94.2217 157.122 94.2854 157.088 94.3429C157.054 94.4004 157.009 94.4507 156.956 94.4908C156.902 94.5309 156.842 94.56 156.777 94.5766C156.122 94.7574 155.446 94.8496 154.767 94.8506V94.8506Z" fill="#231F20"/>
<path d="M171.007 83.2492C171.007 83.2492 174.996 91.1154 173.687 92.2421C172.377 93.3687 169.231 92.1304 169.231 92.1304" fill="white"/>
<path d="M172.053 93.2267C171.01 93.1945 169.98 92.9851 169.008 92.6075C168.946 92.5829 168.889 92.5463 168.841 92.4998C168.793 92.4533 168.755 92.3978 168.729 92.3366C168.702 92.2753 168.688 92.2094 168.687 92.1427C168.686 92.076 168.699 92.0097 168.723 91.9477C168.775 91.8242 168.873 91.7256 168.996 91.6726C169.119 91.6196 169.258 91.6163 169.383 91.6636C170.124 91.9478 172.428 92.6075 173.311 91.8564C173.849 91.4098 172.509 87.4107 170.52 83.4725C170.489 83.4134 170.47 83.3487 170.464 83.2821C170.458 83.2155 170.466 83.1485 170.487 83.0851C170.508 83.0216 170.541 82.963 170.585 82.9127C170.629 82.8624 170.683 82.8215 170.743 82.7925C170.864 82.7349 171.001 82.726 171.128 82.7676C171.255 82.8092 171.361 82.8981 171.423 83.0158C172.672 85.4924 175.433 91.3793 173.981 92.6278C173.425 93.041 172.745 93.2522 172.053 93.2267V93.2267Z" fill="#231F20"/>
<path d="M166.052 81.4712C166.129 80.5326 165.647 79.7273 164.977 79.6727C164.306 79.618 163.701 80.3347 163.624 81.2733C163.548 82.2119 164.029 83.0172 164.7 83.0718C165.37 83.1265 165.976 82.4098 166.052 81.4712Z" fill="#231F20"/>
<path d="M178.627 83.2087C178.697 82.2695 178.21 81.4677 177.539 81.4177C176.868 81.3678 176.268 82.0886 176.198 83.0277C176.128 83.9669 176.615 84.7687 177.286 84.8187C177.957 84.8687 178.557 84.1479 178.627 83.2087Z" fill="#231F20"/>
<path d="M169.972 99.5196C168.42 99.5469 166.884 99.1987 165.496 98.5046C163.07 97.2359 161.517 94.81 160.878 91.2981C160.866 91.2321 160.867 91.1645 160.882 91.0991C160.897 91.0337 160.924 90.9718 160.963 90.9171C161.002 90.8623 161.051 90.8158 161.108 90.7802C161.164 90.7445 161.228 90.7205 161.294 90.7094C161.425 90.6884 161.56 90.7188 161.669 90.7945C161.779 90.8701 161.855 90.985 161.882 91.1154C162.451 94.3025 163.831 96.4848 165.942 97.6013C170.205 99.8343 176.204 97.1344 176.265 97.1039C176.388 97.049 176.527 97.0449 176.652 97.0925C176.778 97.14 176.88 97.2354 176.935 97.3577C176.963 97.4181 176.98 97.4837 176.982 97.5506C176.985 97.6174 176.974 97.6841 176.95 97.7466C176.927 97.8091 176.891 97.8663 176.844 97.9145C176.798 97.9628 176.743 98.0013 176.681 98.0276C174.561 98.9511 172.283 99.4577 169.972 99.5196V99.5196Z" fill="#231F20"/>
<path d="M173.007 105.762C173.007 105.762 163.872 106.513 159.162 102.798C159.162 102.798 163.171 115.486 171.596 115.445L173.007 105.762Z" fill="#231F20"/>
<path d="M171.535 115.952C162.867 115.952 158.827 103.478 158.655 102.95C158.625 102.846 158.628 102.735 158.665 102.634C158.701 102.532 158.769 102.444 158.858 102.382C158.943 102.315 159.049 102.279 159.157 102.279C159.265 102.279 159.371 102.315 159.456 102.382C163.994 105.924 172.854 105.244 172.946 105.234C173.021 105.229 173.097 105.24 173.168 105.268C173.238 105.296 173.301 105.339 173.353 105.395C173.405 105.45 173.443 105.517 173.466 105.589C173.488 105.661 173.495 105.738 173.484 105.813L172.073 115.506C172.051 115.632 171.985 115.747 171.886 115.829C171.788 115.91 171.663 115.954 171.535 115.952V115.952ZM160.167 104.077C161.456 107.254 165.11 114.613 171.139 114.927L172.388 106.31C170.439 106.391 164.43 106.452 160.187 104.077H160.167Z" fill="#231F20"/>
<path d="M129.423 108.046C110.676 105.711 93.0756 185.297 103.307 192.859C119.263 204.664 167.962 188.545 167.962 188.545L163.09 167.545C163.09 167.545 127.941 169.22 127.301 162.003C126.662 154.786 146.942 120.956 144.1 116.024C141.258 111.091 129.423 108.046 129.423 108.046Z" fill="#393DA8"/>
<path d="M194.88 168.134C194.768 168.137 194.659 168.098 194.575 168.025C194.49 167.951 194.436 167.849 194.423 167.738C192.008 150.767 186.709 122.347 184.994 120.682C184.91 120.595 184.864 120.479 184.865 120.358C184.865 120.237 184.912 120.121 184.996 120.035C185.08 119.948 185.195 119.897 185.315 119.893C185.436 119.889 185.554 119.932 185.644 120.013C187.846 122.154 193.51 154.756 195.337 167.606C195.354 167.728 195.322 167.853 195.248 167.952C195.174 168.051 195.063 168.116 194.941 168.134H194.88Z" fill="#231F20"/>
<path d="M176.945 208.287L144.587 199.223L204.015 188.048L236.18 201.527L176.945 208.287Z" fill="white"/>
<path d="M176.945 208.825C176.901 208.835 176.856 208.835 176.813 208.825L144.455 199.69C144.32 199.69 144.191 199.637 144.096 199.541C144.001 199.446 143.947 199.317 143.947 199.182C143.947 199.048 144.001 198.919 144.096 198.824C144.191 198.728 144.32 198.675 144.455 198.675L203.883 187.51C203.975 187.48 204.075 187.48 204.167 187.51L236.333 200.989C236.435 201.033 236.521 201.109 236.576 201.206C236.631 201.304 236.653 201.416 236.637 201.527C236.622 201.639 236.57 201.743 236.489 201.822C236.408 201.901 236.303 201.951 236.19 201.964L177.006 208.825H176.945ZM146.82 199.355L176.986 207.81L234.191 201.284L203.954 188.616L146.82 199.355Z" fill="#231F20"/>
<path d="M157.853 174.802C164.958 175.584 171.545 176.091 178.153 178.862C181.929 180.448 185.494 182.494 188.77 184.952C190.438 186.136 191.998 187.468 193.428 188.931C194.565 190.169 194.2 191.377 192.292 190.778C190.073 190.083 187.972 189.057 186.06 187.733C190.631 191.463 194.683 195.788 198.108 200.593C198.493 201.141 198.869 201.923 198.412 202.41C197.955 202.897 196.94 202.41 196.382 201.903L186.344 192.382C189.001 194.675 191.261 197.391 193.033 200.421C193.286 200.857 193.53 201.436 193.266 201.832C192.819 202.573 191.683 202.014 191.074 201.395C188.067 198.359 185.333 195.065 182.903 191.55L188.323 199.67C188.272 199.819 188.191 199.958 188.086 200.076C187.981 200.194 187.854 200.291 187.711 200.36C187.569 200.429 187.414 200.469 187.256 200.477C187.098 200.486 186.94 200.463 186.79 200.411C186.193 200.164 185.677 199.757 185.298 199.233L178.731 191.692L182.609 197.031C183.218 197.863 183.827 199.061 183.126 199.842C182.426 200.624 180.842 199.842 179.949 199.051C176.357 195.772 172.411 192.902 168.185 190.494C166.653 189.591 165.343 188.363 163.648 187.845C161.212 187.094 158.167 187.195 155.63 186.911" fill="white"/>
<path d="M197.925 203.1C197.247 203.024 196.616 202.715 196.139 202.227L192.891 199.182C193.104 199.517 193.317 199.863 193.51 200.197C193.715 200.462 193.845 200.777 193.886 201.109C193.928 201.442 193.878 201.779 193.743 202.085C193.652 202.242 193.526 202.375 193.374 202.473C193.223 202.572 193.05 202.634 192.87 202.654C192.486 202.649 192.108 202.564 191.758 202.405C191.409 202.246 191.096 202.016 190.84 201.73C190.17 201.06 189.521 200.38 188.881 199.7C188.886 199.737 188.886 199.775 188.881 199.812C188.843 200 188.765 200.177 188.653 200.333C188.541 200.489 188.398 200.619 188.232 200.715C188.013 200.846 187.769 200.931 187.516 200.964C187.263 200.997 187.005 200.978 186.76 200.908C186.077 200.64 185.485 200.182 185.055 199.588L183.857 198.218C184.007 198.549 184.059 198.915 184.009 199.274C183.959 199.634 183.807 199.971 183.573 200.248C183.427 200.412 183.249 200.544 183.05 200.636C182.851 200.729 182.635 200.78 182.416 200.786C181.356 200.67 180.374 200.173 179.655 199.385C176.098 196.125 172.182 193.278 167.982 190.9C167.465 190.596 166.967 190.25 166.48 189.885C165.594 189.194 164.604 188.646 163.547 188.261C161.777 187.813 159.962 187.568 158.137 187.53C157.264 187.48 156.411 187.429 155.61 187.348C155.487 187.332 155.376 187.269 155.3 187.172C155.224 187.075 155.189 186.952 155.204 186.83C155.21 186.77 155.228 186.712 155.257 186.658C155.286 186.605 155.325 186.559 155.373 186.521C155.42 186.483 155.474 186.455 155.532 186.438C155.59 186.422 155.651 186.417 155.711 186.424C156.503 186.505 157.335 186.556 158.188 186.607C160.088 186.643 161.979 186.898 163.821 187.368C164.965 187.786 166.04 188.375 167.008 189.114C167.475 189.449 167.952 189.773 168.449 190.068C172.706 192.487 176.679 195.374 180.294 198.675C180.843 199.233 181.553 199.606 182.324 199.741C182.419 199.737 182.511 199.715 182.597 199.675C182.682 199.635 182.759 199.578 182.822 199.507C183.37 198.908 182.619 197.741 182.274 197.264L178.396 191.935C178.36 191.889 178.333 191.836 178.318 191.779C178.302 191.722 178.298 191.662 178.306 191.604C178.313 191.545 178.332 191.489 178.362 191.438C178.391 191.387 178.431 191.342 178.478 191.306C178.563 191.222 178.678 191.176 178.797 191.176C178.917 191.176 179.032 191.222 179.117 191.306L185.694 198.848C186.015 199.297 186.454 199.648 186.963 199.863C187.083 199.896 187.209 199.906 187.333 199.89C187.456 199.874 187.576 199.834 187.684 199.771C187.748 199.737 187.804 199.689 187.846 199.629L182.558 191.682C182.489 191.581 182.463 191.457 182.486 191.337C182.509 191.217 182.579 191.111 182.68 191.042C182.781 190.974 182.905 190.948 183.025 190.971C183.145 190.993 183.25 191.063 183.319 191.164C185.738 194.654 188.455 197.928 191.439 200.949C191.77 201.311 192.22 201.542 192.708 201.598C192.748 201.597 192.787 201.585 192.821 201.564C192.855 201.542 192.882 201.512 192.901 201.476C193.012 201.304 192.901 200.979 192.667 200.532C191.445 198.441 189.984 196.5 188.313 194.747L186.049 192.595C185.976 192.508 185.937 192.397 185.94 192.284C185.943 192.17 185.987 192.061 186.064 191.977C186.141 191.894 186.246 191.842 186.36 191.83C186.473 191.819 186.586 191.849 186.679 191.915C187.481 192.605 188.242 193.326 188.973 194.087L196.727 201.446C197.029 201.789 197.443 202.012 197.895 202.075C197.936 202.077 197.976 202.068 198.014 202.051C198.051 202.033 198.083 202.007 198.108 201.974C198.341 201.73 198.108 201.182 197.773 200.735C194.374 195.966 190.352 191.671 185.816 187.967C185.733 187.888 185.682 187.781 185.672 187.667C185.663 187.553 185.696 187.439 185.765 187.347C185.834 187.256 185.934 187.193 186.046 187.17C186.159 187.148 186.275 187.168 186.374 187.226C188.24 188.525 190.294 189.531 192.464 190.21C193.175 190.433 193.55 190.342 193.621 190.21C193.692 190.078 193.621 189.631 193.124 189.104C191.716 187.658 190.176 186.347 188.526 185.186C185.283 182.753 181.751 180.731 178.011 179.167C172.053 176.68 166.095 176.04 159.741 175.36L157.761 175.137C157.701 175.131 157.643 175.113 157.59 175.084C157.537 175.055 157.49 175.015 157.452 174.968C157.415 174.921 157.387 174.867 157.37 174.809C157.353 174.751 157.348 174.69 157.355 174.63C157.362 174.57 157.38 174.511 157.409 174.458C157.438 174.405 157.477 174.358 157.524 174.321C157.572 174.283 157.626 174.255 157.684 174.238C157.742 174.222 157.803 174.217 157.863 174.224L159.893 174.437C166.277 175.127 172.296 175.777 178.376 178.314C182.187 179.893 185.787 181.938 189.094 184.404C190.791 185.611 192.374 186.97 193.824 188.464C194.555 189.256 194.778 190.119 194.413 190.697C194.2 191.022 193.632 191.509 192.2 191.062C191.374 190.81 190.564 190.508 189.775 190.159C193.02 193.196 195.954 196.548 198.534 200.167C199.234 201.182 199.326 202.004 198.808 202.573C198.697 202.695 198.563 202.793 198.413 202.861C198.262 202.929 198.1 202.966 197.935 202.968L197.925 203.1Z" fill="#231F20"/>
<path d="M236.18 201.527L250.989 161.891L190.505 163.089L176.945 208.287L236.18 201.527Z" fill="white"/>
<path d="M176.945 208.825C176.871 208.826 176.798 208.81 176.731 208.778C176.664 208.746 176.606 208.7 176.559 208.642C176.506 208.578 176.469 208.503 176.452 208.421C176.434 208.34 176.436 208.256 176.458 208.175L190.018 162.977C190.051 162.875 190.114 162.786 190.2 162.72C190.285 162.655 190.388 162.617 190.495 162.612L250.979 161.414C251.062 161.413 251.144 161.432 251.218 161.469C251.292 161.506 251.357 161.56 251.405 161.627C251.45 161.696 251.478 161.773 251.489 161.854C251.499 161.935 251.492 162.017 251.466 162.094L236.658 201.679C236.624 201.769 236.567 201.848 236.492 201.907C236.416 201.966 236.326 202.003 236.231 202.014L177.006 208.825H176.945ZM190.891 163.617L177.696 207.729L235.856 201.091L250.289 162.439L190.891 163.617Z" fill="#231F20"/>
<path d="M232.953 201.893C232.953 201.893 249.365 215.22 243.6 227.44C237.835 239.661 132.965 253.627 132.965 253.627L128.245 237.651C128.245 237.651 210.511 195.63 232.953 201.893Z" fill="#231F20"/>
<path d="M132.965 254.135C132.856 254.133 132.749 254.097 132.662 254.031C132.574 253.965 132.51 253.874 132.478 253.769L127.758 237.793C127.722 237.681 127.728 237.559 127.774 237.451C127.821 237.343 127.905 237.255 128.012 237.204C128.215 237.093 148.85 226.588 171.971 216.965C203.081 204.024 223.635 198.787 233.054 201.405C233.125 201.425 233.191 201.459 233.247 201.507C236.111 203.94 238.655 206.727 240.819 209.799C245.346 216.316 246.442 222.487 243.986 227.663C238.119 239.985 137.319 253.556 133.036 254.124L132.965 254.135ZM128.844 237.895L133.33 253.038C140.659 252.023 237.622 238.646 243.072 227.207C248.431 215.92 233.937 203.364 232.679 202.339C211.343 196.645 134.995 234.85 128.905 237.915L128.844 237.895Z" fill="#231F20"/>
<path d="M122.815 195.772C122.815 195.772 204.248 228.699 224.437 237.387L212.703 255.515C212.703 255.515 137.512 254.043 115.953 235.154C94.3949 216.265 95.826 184.82 122.815 195.772Z" fill="#231F20"/>
<path d="M212.703 256.043C212.521 256.043 193.632 255.647 172.357 252.947C143.734 249.303 124.652 243.457 115.629 235.55C104.342 225.664 96.4352 208.307 102.647 198.228C104.677 194.879 110.097 190.058 123.028 195.295C123.84 195.63 204.695 228.333 224.66 236.91C224.728 236.938 224.789 236.98 224.838 237.035C224.887 237.089 224.924 237.154 224.944 237.225C224.965 237.296 224.97 237.371 224.959 237.444C224.949 237.518 224.923 237.588 224.883 237.651L213.15 255.809C213.102 255.884 213.036 255.944 212.958 255.985C212.879 256.026 212.792 256.046 212.703 256.043ZM112.817 194.006C108.646 194.006 105.448 195.61 103.5 198.756C98.7088 206.541 102.698 222.883 116.289 234.789C136.802 252.764 207.365 254.896 212.429 255.018L223.696 237.61C202.848 228.678 123.444 196.564 122.632 196.239C119.532 194.878 116.201 194.12 112.817 194.006Z" fill="#231F20"/>
<path d="M236.495 185.703C236.582 186.172 236.785 186.611 237.084 186.982L238.667 189.347C238.609 189.103 238.498 188.874 238.343 188.677C238.187 188.48 237.989 188.32 237.765 188.208C237.54 188.096 237.294 188.034 237.043 188.027C236.792 188.021 236.542 188.069 236.312 188.17C235.863 188.413 235.489 188.776 235.233 189.218C234.977 189.661 234.848 190.166 234.861 190.677C234.906 191.698 235.147 192.7 235.571 193.63C236.698 196.554 239.246 200.827 242.93 198.614C245.427 197.112 246.117 191.814 246.472 189.175C247.173 183.978 245.579 177.299 238.9 178.314C239.093 180.873 240.048 183.316 241.641 185.328C240.555 184.272 236.16 182.638 236.495 185.703Z" fill="white"/>
<path d="M240.89 199.69C240.482 199.693 240.077 199.624 239.692 199.487C237.287 198.665 235.785 195.569 235.104 193.793C234.662 192.807 234.41 191.746 234.364 190.667C234.347 190.067 234.501 189.474 234.809 188.958C235.116 188.442 235.563 188.025 236.099 187.754C236.348 187.64 236.618 187.582 236.891 187.581L236.668 187.246C236.321 186.81 236.091 186.293 235.998 185.744C235.917 185.341 235.973 184.922 236.157 184.555C236.341 184.187 236.642 183.891 237.013 183.714C238.053 183.393 239.177 183.476 240.159 183.947C239.184 182.243 238.601 180.343 238.454 178.385C238.447 178.268 238.484 178.153 238.557 178.061C238.63 177.969 238.734 177.908 238.85 177.888C239.866 177.666 240.92 177.694 241.923 177.969C242.925 178.245 243.846 178.761 244.605 179.471C246.99 181.826 247.386 186.069 246.95 189.266C246.554 192.189 245.843 197.437 243.184 199.04C242.496 199.469 241.701 199.694 240.89 199.69V199.69ZM236.952 188.525C236.788 188.523 236.626 188.554 236.475 188.616C236.105 188.823 235.8 189.128 235.592 189.496C235.385 189.865 235.283 190.284 235.297 190.707C235.337 191.669 235.565 192.614 235.967 193.488C236.475 194.788 237.875 197.904 240.027 198.634C240.471 198.776 240.942 198.815 241.403 198.746C241.864 198.677 242.303 198.504 242.687 198.239C244.97 196.868 245.66 191.712 245.995 189.236C246.412 186.191 246.077 182.232 243.965 180.101C243.366 179.537 242.646 179.118 241.859 178.877C241.072 178.636 240.241 178.579 239.428 178.71C239.69 181.02 240.593 183.211 242.037 185.033C242.111 185.125 242.147 185.241 242.138 185.358C242.128 185.475 242.074 185.585 241.986 185.663C241.9 185.744 241.785 185.789 241.666 185.789C241.548 185.789 241.433 185.744 241.347 185.663C240.667 184.993 238.424 184.039 237.419 184.526C237.195 184.627 236.911 184.861 236.982 185.653C237.071 186.044 237.244 186.411 237.49 186.728L238.342 187.987C238.566 188.132 238.755 188.324 238.895 188.551C239.035 188.777 239.124 189.032 239.154 189.296C239.165 189.4 239.141 189.504 239.086 189.592C239.031 189.681 238.948 189.748 238.85 189.784C238.753 189.818 238.647 189.819 238.549 189.786C238.451 189.753 238.368 189.688 238.312 189.601L237.683 188.667C237.455 188.557 237.204 188.508 236.952 188.525Z" fill="#231F20"/>
<path d="M213.627 233.632C213.563 233.641 213.498 233.641 213.434 233.632C211.658 232.941 169.678 216.691 160.218 210.896C160.1 210.822 160.016 210.705 159.984 210.571C159.951 210.436 159.974 210.294 160.045 210.175C160.081 210.116 160.127 210.064 160.183 210.023C160.239 209.982 160.302 209.953 160.369 209.937C160.436 209.921 160.506 209.918 160.574 209.93C160.642 209.941 160.707 209.966 160.766 210.002C170.144 215.747 213.373 232.485 213.81 232.647C213.94 232.697 214.045 232.797 214.103 232.924C214.16 233.052 214.164 233.197 214.114 233.327C214.072 233.42 214.003 233.499 213.917 233.553C213.83 233.607 213.729 233.635 213.627 233.632Z" fill="white"/>
<path d="M164.663 167.352C173.918 167.352 181.421 160.249 181.421 151.488C181.421 142.726 173.918 135.623 164.663 135.623C155.408 135.623 147.906 142.726 147.906 151.488C147.906 160.249 155.408 167.352 164.663 167.352Z" fill="#231F20"/>
<path d="M164.663 167.849C155.143 167.849 147.408 160.511 147.408 151.488C147.408 142.464 155.153 135.116 164.663 135.116C174.174 135.116 181.918 142.464 181.918 151.488C181.918 160.511 174.184 167.849 164.663 167.849ZM164.663 136.131C155.701 136.131 148.423 143.023 148.423 151.488C148.423 159.953 155.711 166.834 164.663 166.834C173.616 166.834 180.903 159.953 180.903 151.488C180.903 143.023 173.626 136.131 164.663 136.131Z" fill="#231F20"/>
<path d="M155.823 156.644L151.763 154.269V151.132L155.823 148.757C157.176 147.979 158.529 147.187 159.883 146.382V150.178C159.162 150.625 158.441 151.061 157.721 151.478C157 151.894 156.29 152.32 155.559 152.777L157.721 153.974L159.883 155.182V159.019L155.823 156.644Z" fill="white"/>
<path d="M161.03 160.024L165.81 141.835L168.307 142.962L163.506 161.12L161.03 160.024Z" fill="white"/>
<path d="M173.565 148.757L177.625 151.132V154.269L173.565 156.644L169.505 159.019V155.182L171.667 153.974L173.829 152.777C173.108 152.32 172.387 151.884 171.667 151.478C170.946 151.072 170.236 150.625 169.505 150.178V146.382L173.565 148.757Z" fill="white"/>
<path d="M129.92 195.63C129.785 195.638 129.653 195.592 129.552 195.503C129.451 195.413 129.39 195.288 129.382 195.153C129.374 195.018 129.42 194.886 129.509 194.785C129.599 194.684 129.724 194.623 129.859 194.615L154.219 191.661L158.086 172.163L126.875 169.524C126.8 169.519 126.728 169.497 126.663 169.461C126.598 169.424 126.542 169.373 126.499 169.311C126.454 169.251 126.423 169.181 126.409 169.107C126.395 169.033 126.398 168.957 126.418 168.885L139.248 121.119C139.283 120.984 139.37 120.869 139.49 120.799C139.61 120.728 139.753 120.708 139.887 120.743C140.022 120.778 140.137 120.865 140.207 120.985C140.278 121.105 140.298 121.248 140.263 121.383L127.585 168.57L158.716 171.148C158.787 171.156 158.856 171.178 158.919 171.213C158.982 171.248 159.037 171.295 159.081 171.351C159.123 171.409 159.153 171.475 159.169 171.545C159.185 171.614 159.186 171.687 159.172 171.757L155.112 192.169C155.09 192.273 155.036 192.368 154.958 192.441C154.88 192.514 154.782 192.56 154.676 192.575L129.92 195.569V195.63Z" fill="#231F20"/>
<path d="M264.062 57.793H213.455V63.0304H264.062V57.793Z" fill="#E6E7E8"/>
<path d="M320.557 57.793H269.949V63.0304H320.557V57.793Z" fill="#E6E7E8"/>
<path d="M264.062 66.7656H234.353V72.003H264.062V66.7656Z" fill="#68E1FD"/>
<path d="M314.904 66.7656H269.949V72.003H314.904V66.7656Z" fill="#E6E7E8"/>
<path d="M264.062 75.7484H226.619V80.9858H264.062V75.7484Z" fill="#E6E7E8"/>
<path d="M291.061 75.7484H269.949V80.9858H291.061V75.7484Z" fill="#E6E7E8"/>
<path d="M264.073 84.721H242.23V89.9584H264.073V84.721Z" fill="#E6E7E8"/>
<path d="M311.301 84.721H269.949V89.9584H311.301V84.721Z" fill="#68E1FD"/>
<path d="M264.062 93.7037H257.11V98.9411H264.062V93.7037Z" fill="#68E1FD"/>
<path d="M297.73 93.7037H269.949V98.9411H297.73V93.7037Z" fill="#E6E7E8"/>
<path d="M263.189 130.609H216.682V136.608H263.189V130.609Z" fill="#68E1FD"/>
<path d="M299.222 130.609H270.66V136.608H299.222V130.609Z" fill="#E6E7E8"/>
<path d="M263.179 140.881H225.421V146.88H263.179V140.881Z" fill="#E6E7E8"/>
<path d="M312.244 140.881H270.66V146.88H312.244V140.881Z" fill="#E6E7E8"/>
<path d="M263.179 151.163H244.3V157.162H263.179V151.163Z" fill="#E6E7E8"/>
<path d="M320.111 151.163H270.66V157.162H320.111V151.163Z" fill="#E6E7E8"/>
<path d="M263.179 161.445H256.105V167.443H263.179V161.445Z" fill="#E6E7E8"/>
<path d="M323.217 161.445H270.66V167.443H323.217V161.445Z" fill="#68E1FD"/>
<path d="M305.962 171.717H270.66V177.715H305.962V171.717Z" fill="#E6E7E8"/>
<path d="M288.554 117.597L284.738 116.074V114.044L288.554 112.522L292.371 110.999V113.415C291.681 113.709 291.001 113.983 290.341 114.247C289.681 114.511 288.981 114.785 288.311 115.08L290.341 115.851L292.371 116.622V119.079L288.554 117.597Z" fill="#E6E7E8"/>
<path d="M293.497 119.759L298.024 108.117L300.399 108.827L295.842 120.52L293.497 119.759Z" fill="#E6E7E8"/>
<path d="M305.332 112.552C306.601 113.06 307.88 113.567 309.149 114.075V116.105L305.332 117.627L301.516 119.15V116.663L303.546 115.892L305.576 115.12C304.886 114.826 304.206 114.552 303.546 114.288C302.886 114.024 302.186 113.75 301.516 113.456V111.03L305.332 112.552Z" fill="#E6E7E8"/>
<path d="M214.784 45.3085C214.783 45.0732 214.835 44.8407 214.937 44.6285C215.025 44.4123 215.16 44.2182 215.332 44.0601C215.501 43.9038 215.697 43.78 215.911 43.6947C216.14 43.6008 216.384 43.5525 216.632 43.5526C216.865 43.5547 217.097 43.603 217.312 43.6947C217.521 43.7824 217.713 43.9061 217.88 44.0601C218.042 44.2242 218.173 44.4169 218.266 44.6285C218.36 44.8429 218.408 45.0744 218.408 45.3085C218.408 45.5458 218.36 45.7807 218.266 45.9987C218.17 46.1997 218.04 46.3819 217.88 46.5367C217.54 46.8536 217.096 47.0343 216.632 47.0442C216.384 47.0442 216.14 46.9959 215.911 46.9021C215.695 46.8206 215.499 46.6963 215.332 46.5367C215.163 46.3877 215.028 46.2043 214.937 45.9987C214.835 45.7829 214.783 45.5471 214.784 45.3085V45.3085ZM214.784 51.2564C214.789 51.024 214.84 50.7949 214.934 50.5823C215.028 50.3697 215.164 50.178 215.332 50.0181C215.498 49.8553 215.695 49.7275 215.911 49.6426C216.14 49.5522 216.385 49.5074 216.632 49.5106C216.865 49.5093 217.096 49.5541 217.312 49.6426C217.523 49.7301 217.716 49.8576 217.88 50.0181C218.042 50.1785 218.173 50.3678 218.266 50.5764C218.359 50.7926 218.408 51.0258 218.408 51.2615C218.408 51.4971 218.359 51.7303 218.266 51.9466C218.173 52.1521 218.042 52.3381 217.88 52.4947C217.713 52.6487 217.521 52.7723 217.312 52.8601C217.096 52.9485 216.865 52.9934 216.632 52.9921C216.385 52.9953 216.14 52.9505 215.911 52.8601C215.697 52.7748 215.501 52.6509 215.332 52.4947C215.161 52.344 215.026 52.1567 214.937 51.9466C214.834 51.7312 214.782 51.4951 214.784 51.2564V51.2564Z" fill="#E6E7E8"/>
<path d="M274.05 216.092C274.451 216.113 274.848 215.999 275.177 215.768C275.461 215.554 275.593 215.108 275.593 214.418V211.271C275.592 210.75 275.66 210.231 275.796 209.728C275.922 209.26 276.136 208.819 276.425 208.429C276.721 208.055 277.095 207.75 277.521 207.536C278.029 207.299 278.585 207.184 279.145 207.201H281.429V210.469H280.627C280.444 210.451 280.26 210.483 280.093 210.562C279.927 210.641 279.785 210.763 279.683 210.916C279.508 211.225 279.42 211.576 279.43 211.931V215.138C279.441 215.545 279.368 215.949 279.216 216.326C279.094 216.617 278.923 216.885 278.709 217.118C278.522 217.318 278.298 217.48 278.049 217.595C277.85 217.699 277.633 217.765 277.41 217.787V217.787C277.63 217.828 277.845 217.896 278.049 217.99C278.297 218.097 278.522 218.253 278.709 218.447C279.197 218.988 279.456 219.698 279.43 220.426V223.644C279.417 223.999 279.505 224.351 279.683 224.659C279.784 224.814 279.925 224.938 280.092 225.019C280.258 225.099 280.443 225.133 280.627 225.116H281.429V228.384H279.145C278.585 228.401 278.029 228.286 277.521 228.049C277.095 227.835 276.721 227.531 276.425 227.156C276.138 226.765 275.924 226.325 275.796 225.857C275.661 225.35 275.593 224.828 275.593 224.304V221.157C275.628 220.917 275.609 220.672 275.537 220.44C275.465 220.208 275.342 219.995 275.177 219.817C274.848 219.586 274.451 219.472 274.05 219.493V216.092Z" fill="#E6E7E8"/>
<path d="M309.108 219.472C308.704 219.452 308.304 219.566 307.971 219.797C307.808 219.976 307.686 220.189 307.614 220.421C307.542 220.652 307.522 220.897 307.555 221.137V224.283C307.555 224.808 307.487 225.33 307.352 225.836C307.228 226.306 307.014 226.747 306.723 227.136C306.433 227.515 306.057 227.821 305.627 228.029C305.119 228.266 304.563 228.38 304.003 228.364H301.719V225.065H302.531C302.713 225.08 302.896 225.046 303.061 224.965C303.225 224.885 303.365 224.761 303.465 224.608C303.643 224.301 303.731 223.949 303.719 223.593V220.376C303.708 219.973 303.781 219.572 303.932 219.198C304.056 218.903 304.231 218.631 304.449 218.396C304.634 218.203 304.854 218.048 305.099 217.94C305.307 217.847 305.525 217.779 305.749 217.737V217.737C305.522 217.713 305.302 217.648 305.099 217.544C304.853 217.43 304.632 217.268 304.449 217.067C304.229 216.838 304.053 216.569 303.932 216.275C303.78 215.898 303.707 215.494 303.719 215.088V211.87C303.728 211.515 303.64 211.164 303.465 210.855C303.364 210.704 303.223 210.582 303.059 210.504C302.895 210.425 302.712 210.392 302.531 210.408H301.719V207.201H304.003C304.563 207.184 305.119 207.299 305.627 207.536C306.057 207.744 306.433 208.05 306.723 208.429C307.016 208.816 307.23 209.258 307.352 209.728C307.488 210.231 307.556 210.75 307.555 211.271V214.418C307.521 214.659 307.541 214.906 307.613 215.139C307.685 215.372 307.807 215.587 307.971 215.768C308.304 215.999 308.704 216.113 309.108 216.092V219.472Z" fill="#E6E7E8"/>
</svg>
