<svg width="512" height="512" viewBox="0 0 512 512" fill="none" xmlns="http://www.w3.org/2000/svg">
<path d="M255.999 502.455C392.112 502.455 502.454 392.113 502.454 256C502.454 119.887 392.112 9.54501 255.999 9.54501C119.886 9.54501 9.54401 119.887 9.54401 256C9.54401 392.113 119.886 502.455 255.999 502.455Z" fill="#FEFBFB"/>
<path d="M384 128H128C110.398 128 96 142.406 96 160V352C96 369.594 110.398 384 128 384H384C401.594 384 416 369.594 416 352V160C416 142.406 401.594 128 384 128ZM384 352H352V211.203L256 272L160 211.203V352H128V160H147.203L256 227.203L364.797 160H384V352Z" fill="#0C0B0B"/>
</svg>
