<svg width="622" height="842" viewBox="0 0 622 842" fill="none" xmlns="http://www.w3.org/2000/svg">
<path d="M276.8 665C274.933 665 274 663.833 274 661.5L275.4 180.6C275.4 178.733 276.333 177.8 278.2 177.8H363.6C365.467 177.8 367.1 178.733 368.5 180.6L432.2 273L495.9 180.6C497.3 178.733 498.933 177.8 500.8 177.8H586.9C588.767 177.8 589.7 178.733 589.7 180.6L591.1 661.5C591.1 663.833 590.167 665 588.3 665H509.2C507.333 665 506.4 663.833 506.4 661.5L505.7 304.5L432.2 410.9L359.4 304.5L358.7 661.5C358.7 663.833 357.767 665 355.9 665H276.8Z" fill="white"/>
<path d="M30.8 665C28.9333 665 28 663.833 28 661.5L28.7 181.3C28.7 178.967 29.8667 177.8 32.2 177.8H109.9C112.233 177.8 113.4 178.967 113.4 181.3L112.7 578.9H256.9C259.233 578.9 260.4 580.067 260.4 582.4V661.5C260.4 663.833 259.233 665 256.9 665H30.8Z" fill="white"/>
</svg>
