<svg width="318" height="120" viewBox="0 0 318 120" fill="none" xmlns="http://www.w3.org/2000/svg">
<path d="M4.224 91C3.968 91 3.84 90.84 3.84 90.52L4.032 24.568C4.032 24.312 4.16 24.184 4.416 24.184H16.128C16.384 24.184 16.608 24.312 16.8 24.568L25.536 37.24L34.272 24.568C34.464 24.312 34.688 24.184 34.944 24.184H46.752C47.008 24.184 47.136 24.312 47.136 24.568L47.328 90.52C47.328 90.84 47.2 91 46.944 91H36.096C35.84 91 35.712 90.84 35.712 90.52L35.616 41.56L25.536 56.152L15.552 41.56L15.456 90.52C15.456 90.84 15.328 91 15.072 91H4.224ZM52.1385 90.52L64.0425 24.568C64.1065 24.312 64.2665 24.184 64.5225 24.184H78.4425C78.6985 24.184 78.8585 24.312 78.9225 24.568L90.3465 90.52C90.4105 90.84 90.2825 91 89.9625 91H79.3065C79.0505 91 78.8905 90.84 78.8265 90.52L77.7705 83.512H64.7145L63.6585 90.52C63.5945 90.84 63.4345 91 63.1785 91H52.5225C52.2665 91 52.1385 90.84 52.1385 90.52ZM66.6345 73.24H75.8505L71.9145 46.264L71.3385 42.712L70.9545 46.264L66.6345 73.24ZM97.2353 91C96.7233 91 96.4673 90.776 96.4673 90.328L96.3713 24.952C96.3713 24.44 96.6273 24.184 97.1393 24.184H105.779L122.003 62.008L121.523 24.952C121.523 24.44 121.811 24.184 122.387 24.184H131.891C132.275 24.184 132.467 24.44 132.467 24.952L132.563 90.424C132.563 90.808 132.403 91 132.083 91H123.635L107.027 55.672L107.699 90.232C107.699 90.744 107.411 91 106.835 91H97.2353ZM157.223 91.96C153.767 91.96 150.599 91.096 147.719 89.368C144.903 87.576 142.631 85.24 140.903 82.36C139.239 79.416 138.407 76.184 138.407 72.664V68.248C138.407 67.928 138.567 67.768 138.887 67.768H149.639C149.895 67.768 150.023 67.928 150.023 68.248V72.664C150.023 74.776 150.727 76.6 152.135 78.136C153.543 79.608 155.239 80.344 157.223 80.344C159.207 80.344 160.903 79.576 162.311 78.04C163.719 76.504 164.423 74.712 164.423 72.664C164.423 70.296 162.887 68.248 159.815 66.52C158.791 65.944 157.191 65.048 155.015 63.832C152.839 62.616 150.791 61.464 148.871 60.376C145.351 58.328 142.727 55.768 140.999 52.696C139.335 49.56 138.503 46.04 138.503 42.136C138.503 38.552 139.367 35.352 141.095 32.536C142.823 29.656 145.095 27.384 147.911 25.72C150.791 24.056 153.895 23.224 157.223 23.224C160.615 23.224 163.719 24.088 166.535 25.816C169.415 27.48 171.687 29.752 173.351 32.632C175.079 35.448 175.943 38.616 175.943 42.136V50.008C175.943 50.264 175.815 50.392 175.559 50.392H164.807C164.551 50.392 164.423 50.264 164.423 50.008L164.327 42.136C164.327 39.896 163.623 38.072 162.215 36.664C160.807 35.256 159.143 34.552 157.223 34.552C155.239 34.552 153.543 35.32 152.135 36.856C150.727 38.328 150.023 40.088 150.023 42.136C150.023 44.248 150.471 46.008 151.367 47.416C152.263 48.824 153.895 50.168 156.263 51.448C156.583 51.64 157.191 51.992 158.087 52.504C159.047 52.952 160.071 53.496 161.159 54.136C162.247 54.712 163.207 55.224 164.039 55.672C164.935 56.12 165.479 56.408 165.671 56.536C168.871 58.328 171.399 60.536 173.255 63.16C175.111 65.72 176.039 68.888 176.039 72.664C176.039 76.312 175.175 79.608 173.447 82.552C171.783 85.432 169.511 87.736 166.631 89.464C163.815 91.128 160.679 91.96 157.223 91.96ZM183.195 91C182.875 91 182.715 90.84 182.715 90.52L182.811 24.568C182.811 24.312 182.939 24.184 183.195 24.184H193.947C194.203 24.184 194.331 24.312 194.331 24.568L194.427 90.52C194.427 90.84 194.299 91 194.043 91H183.195ZM204.193 91C203.937 91 203.809 90.84 203.809 90.52L203.905 24.664C203.905 24.344 204.065 24.184 204.385 24.184H215.041C215.361 24.184 215.521 24.344 215.521 24.664L215.425 79.192H235.201C235.521 79.192 235.681 79.352 235.681 79.672V90.52C235.681 90.84 235.521 91 235.201 91H204.193ZM242.349 91C242.093 91 241.965 90.84 241.965 90.52L242.061 24.664C242.061 24.344 242.221 24.184 242.541 24.184H253.197C253.517 24.184 253.677 24.344 253.677 24.664L253.581 79.192H273.357C273.677 79.192 273.837 79.352 273.837 79.672V90.52C273.837 90.84 273.677 91 273.357 91H242.349ZM276.857 90.52L288.761 24.568C288.825 24.312 288.985 24.184 289.241 24.184H303.161C303.417 24.184 303.577 24.312 303.641 24.568L315.065 90.52C315.129 90.84 315.001 91 314.681 91H304.025C303.769 91 303.609 90.84 303.545 90.52L302.489 83.512H289.433L288.377 90.52C288.313 90.84 288.153 91 287.897 91H277.241C276.985 91 276.857 90.84 276.857 90.52ZM291.353 73.24H300.569L296.633 46.264L296.057 42.712L295.673 46.264L291.353 73.24Z" fill="white"/>
<rect x="1" y="99" width="317" height="10" rx="5" fill="white"/>
</svg>
